<?xml version="1.0" standalone="no"?>
<!DOCTYPE svg PUBLIC "-//W3C//DTD SVG 1.1//EN" "http://www.w3.org/Graphics/SVG/1.1/DTD/svg11.dtd" >
<svg xmlns="http://www.w3.org/2000/svg">
<metadata>
Created by FontPrep 20130207 at Mon Jun  2 23:43:32 2014
 By Rayhan Vevaina
</metadata>
<defs>
<font id="7f93a81e03084d6c75228cf11aa163c5" horiz-adv-x='1024' >
  <font-face 
    font-family="JennaSue"
    font-weight="400"
    font-stretch="normal"
    units-per-em="2048"
    panose-1="0 0 0 0 0 0 0 0 0 0"
    ascent="1536"
    descent="-512"
    x-height="614"
    cap-height="1450"
    bbox="-408.935 -789.947 1243 1777.25"
    underline-thickness="102"
    underline-position="-102"
    unicode-range="U+0020-2212"
  />
<missing-glyph horiz-adv-x="274" 
 />
    <glyph glyph-name=".notdef" horiz-adv-x="274" 
 />
    <glyph glyph-name=".null" horiz-adv-x="0" 
 />
    <glyph glyph-name="nonmarkingreturn" horiz-adv-x="274" 
 />
    <glyph glyph-name="space" unicode=" " horiz-adv-x="327" 
 />
    <glyph glyph-name="space" unicode="&#xa0;" horiz-adv-x="327" 
 />
    <glyph glyph-name="exclam" unicode="!" horiz-adv-x="516" 
d="M241 303q-22 0 -32 6t-21 27q-5 493 -53 828q-17 120 -37 276q0 23 36 11t54 -40q6 -176 33 -458q58 -617 47 -652q-5 2 -27 2zM332 98q13 -26 8 -40q-6 -13 -14 -23t-17 -27q-77 -21 -102 23q-7 56 32 71q40 15 93 -4z" />
    <glyph glyph-name="quotedbl" unicode="&#x22;" horiz-adv-x="350" 
d="M111 1276q0 -74 36 -250q-10 -10 -35.5 -4t-35.5 16q-13 65 -20 197.5t-11 134.5q0 23 3.5 39t21.5 17t24 -1t23 -18q-6 -57 -6 -131zM258 1300q0 -42 13.5 -117t15.5 -99.5t-8 -28.5q-65 -6 -82 276q32 25 61 -31z" />
    <glyph glyph-name="numbersign" unicode="#" horiz-adv-x="1140" 
d="M612 549.5q0 15.5 -1 33t-2 38t-5 51.5q-61 -11 -129 -31q6 -71 7 -97t2 -42.5t1 -20.5l129 33q-2 20 -2 35.5zM473 717q75 24 129 33q-2 20 -13.5 176t-35.5 180q31 35 46 38t29 -23t22.5 -79t13 -109t6.5 -104.5t4 -64.5q53 8 152.5 26.5t154.5 18.5q29 -23 33 -28
t-10 -15q-39 -8 -124 -28.5t-200 -45.5q2 -45 6 -81t2 -81q43 10 70.5 16.5t56.5 11.5t79 10t57 0t14 -27q-15 -26 -83.5 -42t-112.5 -25t-81 -23q2 -47 11.5 -123t9.5 -172q-27 2 -35 7t-20 31t-17.5 63.5t-8.5 74.5t-4 65.5t-3 38.5q-108 -23 -132 -28q0 -29 4.5 -67
t11.5 -98.5t-3 -76.5q-34 -9 -60 10q-4 26 -7 111t-5 104q-30 -5 -104 -24t-101 -15q-12 31 -11 45.5t22.5 22.5t66.5 16t119 25q-16 144 -19 168q-82 -12 -146 -21.5t-120 -7.5q-10 14 -11 21.5t15 19.5q53 40 252 68q-32 283 -37 317q27 4 35 6t31 -8q14 -27 51 -307z" />
    <glyph glyph-name="dollar" unicode="$" horiz-adv-x="1060" 
d="M657 501.5q0 -14.5 1 -30.5t4.5 -45t9.5 -82q251 57 239 141q-7 27 -69 35t-106 11.5t-81 9.5q2 -25 2 -39.5zM538 322q3 0 15 2t25.5 4t33.5 6q-6 59 -7 107t-9 102q-35 4 -63.5 7t-53.5 9q0 -22 10 -237h49zM416 637l-17 250q-4 0 -29.5 -12.5t-75 -53t-32.5 -98.5
q18 -36 45 -47.5t51.5 -19t57.5 -19.5zM545 975q-57 -25 -94 -49q6 -51 8 -81t4 -57.5t4 -62.5t10 -98q35 -7 111 -15q-6 53 -10.5 89t-8.5 73t-10 82t-14 119zM440 262q-75 0 -128.5 39t-65.5 61t-11 28.5t13 -0.5q47 -27 104.5 -50t79.5 -14q-2 45 -2 69.5t-1 46t-3 48
t-4 75.5q-115 32 -171 69.5t-52 135.5q0 73 190 193q-16 87 -49 243q4 45 57 41q6 -55 17.5 -118.5t21.5 -135.5q68 34 105 47q-2 31 -11.5 62t-7.5 57q50 0 66 -12q0 -37 10 -94h51q23 -2 47.5 -4t46.5 -13q12 -18 15.5 -21t-13.5 -7q-30 5 -139 -17q14 -165 23.5 -242
t15.5 -137q139 -18 230.5 -39.5t101.5 -60.5q14 -103 -85.5 -152.5t-213.5 -78.5q19 -141 16 -197q-23 -8 -43 2t-18 14l-10 170q-84 -12 -127 -8q5 -117 16 -274q-40 0 -57 14q-8 19 -9.5 85.5t-3.5 106t-2 68.5z" />
    <glyph glyph-name="percent" unicode="%" horiz-adv-x="1011" 
d="M121 805q51 20 92 68.5t55.5 95.5t-5 78.5t-89.5 21.5q-57 -86 -71.5 -152.5t-9.5 -92t28 -19.5zM516 -78h-63q-16 0 -33 20t9 120q53 203 122.5 563t112.5 549q-48 -21 -125.5 -73t-119.5 -78t-85 -40q-88 -271 -266 -258q-58 4 -33.5 120t51.5 179t55 88q25 31 42.5 29
t35.5 1q32 5 88 -13t60 -50q78 37 157.5 66t153.5 84q10 41 12 67.5t7.5 51t47.5 43.5q10 4 29 4t53 -17l1 -20q1 -21 -15 -80q-123 -147 -189.5 -618.5t-79 -554t-19.5 -133t-9 -50.5zM725 150q23 -23 64.5 32.5t53 104.5t8.5 69.5t-24 20.5q-23 6 -52.5 -16.5t-65.5 -89
t16 -121.5zM881 446q25 -10 36 -42t-3 -80t-47.5 -169.5t-155.5 -93.5q-6 4 -27.5 12.5t-28.5 18.5q-16 35 -13.5 104.5t46.5 163.5q41 96 193 86z" />
    <glyph glyph-name="ampersand" unicode="&#x26;" horiz-adv-x="856" 
d="M332 371q-6 -25 -32 -91t-28 -119q-2 -51 18 -73q33 -37 97 -1t82 87q-75 111 -95 137q-19 26 -42 60zM468 1053q1 61 -18 114t-85 93q-79 44 -140 22q-134 -58 -67 -311q49 -194 121 -334q25 -49 49 -76q18 43 43 103t47 124q22 66 35 135q14 69 15 130zM72 1083
q0 201 130 267q65 33 158 0q293 -123 67 -746q-29 -80 -56 -137q27 -58 49 -92q22 -33 40 -62t48 -69q25 45 61 131t47 111q12 24 27 30q14 -3 47 -78q-27 -32 -64 -117q-36 -85 -75 -145q53 -95 141 -192q47 -55 99 -70q14 -4 17 -9t-5 -26q-144 -5 -235 143q-26 42 -52 87
q-106 -116 -217 -102q-41 5 -74 44q-35 53 -12 153t74 269q-130 291 -178 430q-37 88 -37 180z" />
    <glyph glyph-name="quotesingle" unicode="'" horiz-adv-x="231" 
d="M145 1376q-5 0 -7.5 -131t-12.5 -180q-12 -8 -40 -14.5t-38 4.5q8 47 15.5 89t13.5 103t-10 168q16 14 23 16.5t30 2.5q18 -4 22 -19.5t4 -38.5z" />
    <glyph glyph-name="parenleft" unicode="(" horiz-adv-x="374" 
d="M356 1325q41 10 41 -27q-232 -291 -245 -655q-14 -435 63.5 -579t99.5 -191q18 -29 10 -41t-28 -27q-93 138 -163 354.5t-63 359.5t9 179q44 275 123.5 409t113 170t39.5 48z" />
    <glyph glyph-name="parenright" unicode=")" horiz-adv-x="417" 
d="M266 516q0 436 -82 576.5t-106 187.5q-20 29 -12 41t28 27q221 -310 234.5 -538t12.5 -269t-1 -78q-39 -285 -112.5 -417t-106.5 -169t-39 -49q-41 -14 -41 25q225 304 225 663z" />
    <glyph glyph-name="asterisk" unicode="*" horiz-adv-x="428" 
d="M340 991q-8 0 -32 12q-24 13 -37 27t-42 31l15 -143q-23 -4 -30 0t-17 20q-1 26 -7 52t-6 52q-30 -25 -43 -71q-16 -10 -20 -6t-15 8q12 27 20 41l11 22q9 18 13 37q-4 0 -97 -31q-4 12 -4 22t-2 19q27 3 47 13t56 10q-62 54 -78 63q20 35 85 -5l25 -15q-7 42 -8 58
q-2 17 -8 35t8 28q13 10 19 -5q20 -52 20 -104q17 15 25 33t32 53q20 0 35 -18q-13 -38 -31 -52q-17 -14 -34 -38q37 0 104 24q25 6 29 -30q-35 -13 -55 -21t-48 -14q8 -16 39 -44t47 -61q-8 -2 -16 -2z" />
    <glyph glyph-name="plus" unicode="+" horiz-adv-x="704" 
d="M312 221q-24 0 -40 8v83q0 82 -4 126q-25 -2 -116 -7t-99 -13q-10 39 4.5 61.5t36.5 21.5t28 -1h24l120 2q-18 207 -28 227q39 10 54 7t13 -36l10 -198h10l205 4q22 0 12 -30t-12 -34h-23h-188l17 -211q0 -10 -24 -10z" />
    <glyph glyph-name="comma" unicode="," horiz-adv-x="235" 
d="M94 100q23 4 35 -1t29 -9q-16 -79 -101.5 -192t-124.5 -113q-10 8 7.5 33.5t74 107.5t80.5 174z" />
    <glyph glyph-name="hyphen" unicode="-" horiz-adv-x="512" 
d="M90 483l83 1q83 1 189 5q20 0 11.5 -29.5t-11.5 -33.5q-100 9 -206.5 -3.5t-114.5 -21.5q-10 39 3 61.5t46 20.5z" />
    <glyph glyph-name="period" unicode="." horiz-adv-x="196" 
d="M35 47q6 27 26 43q45 36 80 8q15 -12 13 -36q-4 -40 -54 -51q-50 -12 -65 36z" />
    <glyph glyph-name="slash" unicode="/" horiz-adv-x="399" 
d="M376 1448q17 0 27 -8q-104 -393 -268 -1470q-14 -91 -16 -107q-27 -14 -68 20q-7 59 44 346q201 1137 196 1180q19 39 85 39z" />
    <glyph glyph-name="zero" unicode="0" horiz-adv-x="618" 
d="M177 231.5q27 -108.5 87 -104.5q56 -7 106.5 133.5t65.5 234.5q65 389 -41 492t-194 111q-7 -32 -17 -126.5t-17 -160.5t-16 -173t-5 -203q4 -95 31 -203.5zM92 536.5q0 87.5 5 161.5t11.5 177.5t30.5 244.5q-55 7 -55 76q249 -20 335.5 -132.5t96.5 -215.5
q25 -367 -45 -535t-117 -219t-80 -63q-47 -12 -71.5 -1t-48.5 54t-37 117.5t-19 161t-6 174z" />
    <glyph glyph-name="one" unicode="1" horiz-adv-x="552" 
d="M223 1208h66q-13 -206 7.5 -453t35 -393.5t22.5 -289.5q-6 -16 -14 -17.5t-23 -1.5q-39 -10 -47 19q0 198 -20.5 451t-30.5 374t-12 163t-4 65.5t-3 44t3 32.5t20 6z" />
    <glyph glyph-name="two" unicode="2" horiz-adv-x="843" 
d="M-11 745l-40 5q-20 62 123 225q77 89 207 207q27 16 52 24t56 -17t30 -91t-19 -162t-77 -320t-87 -334t-41 -200q190 93 410 279q65 54 106 98q33 0 29 -64q-1 -16 -1 -30q-265 -214 -573 -396q-23 -10 -34 -8t-21 19q21 169 101 477t101 407q44 213 4 242q-4 14 -46 -14
t-95 -83q-138 -141 -168 -259q-12 -4 -17 -5z" />
    <glyph glyph-name="three" unicode="3" horiz-adv-x="831" 
d="M112 -47q-22 0 -22 4l27 43q263 19 426 175q72 69 106 148q73 164 -9 285q-40 58 -110 82q-155 52 -333 -51q-43 -25 -70 -41q-12 -4 -15 16t5 43q140 89 236 207t71 185q-12 35 -44 51t-78 5q-105 -25 -214 -183l-16 8q-14 8 -13 12q55 98 126 156q143 116 249 67
q50 -23 64 -82q28 -116 -86 -235q-49 -55 -115 -103q123 59 254 26q130 -33 186 -140q41 -80 31 -178q-10 -97 -64 -191t-150 -170q-95 -76 -214 -108t-228 -31z" />
    <glyph glyph-name="four" unicode="4" horiz-adv-x="671" 
d="M487 1225q4 -49 -7 -236.5t-13 -279.5q41 6 67.5 13t45.5 1q16 -8 25 -27.5t-3 -36.5q-51 -5 -143 -41q-4 -74 -5 -178t-2.5 -271.5t-19.5 -211.5q-12 -12 -45 -6t-33 10q41 198 41 645q-29 -6 -174 -52t-194 -38q16 69 67.5 216t65.5 231q15 45 84 28q5 -32 -62 -200
t-76 -193q150 31 291 86q6 94 21 301.5t2 224.5q0 14 19 23.5t48 -8.5z" />
    <glyph glyph-name="five" unicode="5" horiz-adv-x="854" 
d="M250 1012q-25 -48 -25 -143.5t17 -112.5q201 -33 349.5 -116t184.5 -202t-56.5 -254t-287 -145.5t-326.5 67.5q-12 12 27 29l37 17q146 -75 265.5 -48t179 72t78.5 118t0 127t-64 96t-105.5 71.5t-121 52.5t-113.5 38t-84 28q-47 18 -43 86.5t12 181.5q-12 6 -19.5 7
t-12.5 2.5t-11 26.5q-6 26 1 43t15 19q70 10 132.5 27.5t170.5 45.5t234 25q27 -27 27 -49t-9 -24q-89 3 -185.5 -21t-153 -39.5t-113.5 -25.5z" />
    <glyph glyph-name="six" unicode="6" horiz-adv-x="724" 
d="M297 86q65 4 133 52t119 108t75 116q24 55 3 72q-61 48 -119 18q-107 -55 -176 -239q-29 -78 -35 -127zM211 8v16q0 9 4 29q-76 91 -104 281q-41 256 -13 465q29 209 101 389q25 6 47 -8q8 -9 16 -19q-175 -360 -83 -827q27 -139 57 -195q42 178 135 300q29 38 59 57
q40 35 102 38q116 5 148 -47t-16 -156q-84 -176 -254 -271q-57 -32 -121 -40q-4 -14 1 -31t1 -22q-54 -7 -72 21q-4 8 -6 11t-2 9z" />
    <glyph glyph-name="seven" unicode="7" 
d="M-20 1174q205 54 499 94q16 8 18.5 -38t-5.5 -145t-41.5 -390t-40.5 -439q-6 -59 -3 -100t3 -72q-8 -8 -33 0t-29 33q-10 226 27.5 562t42.5 505q-22 8 -195 -32t-198 -38t-33 12.5t-12 47.5z" />
    <glyph glyph-name="eight" unicode="8" horiz-adv-x="589" 
d="M326 104q67 11 57 186q-3 70 -23 140t-49 107q-48 -114 -54 -251q-5 -137 27 -173q15 -19 42 -9zM295 662q8 24 31 74q106 228 77 253q-87 60 -155 41q-125 -52 -86 -177q30 -98 133 -191zM432 1081q18 -6 38 -18t13 -55q-54 -188 -89 -270q-35 -81 -58 -130
q45 -53 74 -136q61 -174 17 -330q-22 -75 -75 -107q-39 -21 -59 -19t-45 28t-43 92q-27 100 4 276q13 72 27 106q14 35 26 68q-14 32 -47 68q-144 160 -127 300q-2 33 20 66t37 47q106 89 287 14z" />
    <glyph glyph-name="nine" unicode="9" horiz-adv-x="608" 
d="M150 944q33 -64 115.5 -3.5t122.5 112t52 98.5q-121 7 -194.5 -54t-91.5 -98t-4 -55zM516 1208q7 11 -22.5 -169.5t-37 -267.5t-13 -171t-21.5 -312t-10 -321q-25 -4 -33 -3t-33 13q11 379 66 996q-92 -87 -193.5 -114.5t-144.5 48.5q-16 37 15.5 99.5t95 118t150.5 85
t181 -1.5z" />
    <glyph glyph-name="colon" unicode=":" horiz-adv-x="245" 
d="M188 123q0 -44 -37 -68q-40 -23 -88 0q-15 62 39 81t86 -13zM59 461q6 27 29 43q22 16 46 18t41 -11t14 -37t-30 -44q-27 -21 -58 -8q-32 12 -42 39z" />
    <glyph glyph-name="semicolon" unicode=";" horiz-adv-x="329" 
d="M123 506q6 27 26.5 43t42 18t38 -9.5t13.5 -35.5q-5 -43 -55 -53.5t-65 37.5zM141 125q5 18 46.5 24.5t56.5 -24.5q-19 -76 -91.5 -162t-112.5 -119.5t-60 -33.5q-10 8 7 33.5t73.5 107.5t80.5 174z" />
    <glyph glyph-name="less" unicode="&#x3c;" horiz-adv-x="548" 
d="M194 464q72 -90 250 -239q-20 -35 -46 -39t-46 21q-53 53 -97 103t-103 110q-29 15 -25 31v1q-2 22 49 73t219 227q12 12 31 -22q4 -7 4 -11q-17 -15 -105 -110q-87 -95 -107 -119t-24 -26z" />
    <glyph glyph-name="equal" unicode="=" horiz-adv-x="704" 
d="M135 303q-18 0 -10 29.5t10 34.5q38 -7 172 1q135 7 236 11q10 -39 -5.5 -60.5t-45.5 -19.5q-156 4 -357 4zM420 440q-19 0 -152 -9.5t-151 -14.5q-10 39 4.5 61.5t68.5 22.5h114q114 0 220 4q19 0 10.5 -30t-10.5 -34h-104z" />
    <glyph glyph-name="greater" unicode="&#x3e;" horiz-adv-x="581" 
d="M397 428q-90 123 -233 254q22 33 48 36t44 -24q52 -58 92 -110t93 -115q24 -14 25 -35t-26 -41q-56 -53 -120 -110t-142 -129q-11 -11 -28 22q-4 8 -5 12q96 84 252 240z" />
    <glyph glyph-name="question" unicode="?" horiz-adv-x="868" 
d="M377 6q-20 0 -55 8q-36 66 14 88q20 10 48 10t54 -10q15 -29 6 -50q-8 -21 -12 -38q-35 -8 -55 -8zM397 338q-30 -25 -64 28q-9 13 -18 19q-12 23 14 64q25 41 73 113q150 229 237 458q54 132 50 196t-38 80q-135 71 -282 -52q-124 -102 -193 -271q-35 27 -22 87
q12 60 58 128t119 125q118 92 261 89q107 -2 143 -93q57 -149 -175 -630q-98 -203 -130 -265q-31 -62 -33 -76z" />
    <glyph glyph-name="at" unicode="@" horiz-adv-x="944" 
d="M423 700q-70 -35 -133 -217q-22 -64 -4 -70q9 -3 16 -8t15 0t23 15q147 159 127 274q-20 18 -44 6zM536 766q29 0 29 -96q0 -43 -3 -91t-5 -125t30 -107q17 -17 52 -7q20 8 43 51t37 103q59 249 -61 379q-44 50 -134 75t-164 -17q-147 -82 -191 -304q-28 -149 9 -294
t148 -196q59 -27 151 -12q163 24 324 113q10 -8 -2 -36t-53 -46q-40 -18 -96 -42q-211 -97 -361 -36q-124 47 -174 204t-20 312t101 265t162 137q90 28 158 14t117 -41t77 -55t38 -36t28 -50q16 -42 26 -91q23 -117 -6 -193q-82 -224 -150 -258q-87 -42 -132 92
q-31 94 -22 150q-29 -39 -67 -92q-38 -54 -82 -76t-82 -14t-42 51q-2 17 15 79q42 153 136 249q50 51 99 46t67 -5z" />
    <glyph glyph-name="A" unicode="A" horiz-adv-x="851" 
d="M272 489q207 40 220 50q-4 45 -8 75t-6 62l-7 77q-8 88 -36 312q-7 63 -13 41q-29 -111 -74 -282q-46 -171 -76 -335zM575 565l275 47q6 -18 -32 -43t-113 -50q-76 -25 -113 -38q8 -82 55 -339t39 -265q-35 -4 -50 7t-38 20q-16 135 -41 275t-39 280q-47 -9 -120 -27
t-150 -31q-12 -45 -22 -100t-21 -105q-9 -50 -17 -90t-14 -53q-10 -10 -36 -13t-42 13q0 53 78 336l-133 -6q-80 0 -90 27q-12 10 0 23t22 24q39 4 87 7t128 17q92 342 137 539q44 198 70 313q19 27 31 28t41 -1q13 -71 31 -215t30 -232q8 -88 22 -173t25 -175z" />
    <glyph glyph-name="B" unicode="B" horiz-adv-x="1003" 
d="M287 275q0 -77 18 -218q109 31 225.5 98.5t212 148.5t152.5 166t47 153q-8 45 -85 62t-181.5 12t-212 -29.5t-176.5 -61.5v-331zM270 1176q-8 -129 2.5 -240t14.5 -229q196 85 266 205t86 198q6 39 -25.5 66.5t-121.5 43.5t-222 -44zM68 556q0 13 2 32q14 10 26.5 17
t27.5 15.5t37.5 19.5t57.5 32q-2 72 -3 127t-4 107t-8 109.5t-11 131.5q0 8 -29 -3t-93.5 -48.5t-97.5 -91.5q-16 -18 -23 -35t-12.5 -28t-8.5 -12t-11 13q7 99 85 171t185 114q2 23 0 35t2 22q10 2 31 21.5t29 19.5q4 -12 6.5 -27t7.5 -34q102 59 208 46.5t154 -34
t64 -49.5q73 -97 -5.5 -232t-195.5 -233q210 40 362.5 8.5t170 -139.5t-82.5 -236t-143.5 -162t-58 -45.5t-28 -20.5t-65.5 -46q-121 -86 -368 -174q-92 -18 -149.5 13.5t-52.5 68.5q109 -22 125 -9t26 17q2 47 2 112t6 158q-2 86 -5 153.5t-3 112.5l-76 -31
q-76 -30 -78.5 -14.5t-2.5 28.5z" />
    <glyph glyph-name="C" unicode="C" horiz-adv-x="768" 
d="M729 1372q-16 -6 -68.5 -18.5t-179.5 -81t-241 -287.5q-63 -128 -90 -288t-23 -160q-25 -249 32.5 -346.5t123 -103t95.5 1.5t38 7q233 99 370 400q14 17 46 36.5t32 2.5q-64 -206 -219.5 -355t-296.5 -190q-88 -16 -165 34t-122 189q-37 197 -14 346q23 334 187 574.5
t387 296.5q29 0 62.5 -12.5t45.5 -23t0 -22.5z" />
    <glyph glyph-name="D" unicode="D" horiz-adv-x="1257" 
d="M397 1169l39 -473q6 -54 16 -161q9 -107 15 -173t13 -158t12 -132q47 -6 128 16q82 22 168 77q209 130 281 349q37 249 -207 415q-138 92 -266 148q-127 56 -199 92zM389 1320q0 -22 2 -50q105 -56 229 -116q277 -133 418 -280q80 -82 105 -182q39 -245 -142 -436
t-479 -248q-105 -21 -189 16q-83 36 -108 119q-4 45 27 67q10 7 16 5t-2 -18q0 -101 109 -130q27 -7 45 -12q-21 135 -41 420q-41 596 -64 733q-95 43 -145 72t-102 45q-16 21 -10 33t12 35q84 -20 136 -47t99 -37l-6 69q11 47 66 37q21 -21 22 -47q2 -26 2 -48z" />
    <glyph glyph-name="E" unicode="E" horiz-adv-x="1013" 
d="M850 836q0 -14 -14 -23q-210 -24 -463 -137q-63 -29 -113 -51q8 -203 71 -355q63 -153 153 -169t154 2q144 42 288 200q55 49 80 55t6 -18q-56 -60 -102 -112q-163 -184 -335 -210q-194 -43 -287 122q-72 126 -118 446q-54 -6 -117 -47q-30 4 9 53q38 50 94 86
q-66 462 -66 600q30 15 45 17q14 1 37 3q6 -15 6 -61q110 29 404 115t316 82q20 -4 38 -16t6 -17q-90 -53 -364 -140q-273 -87 -383 -133q4 -46 6 -80q8 -139 37 -329q168 73 299 110t256 74q25 -5 41 -29t16 -38z" />
    <glyph glyph-name="F" unicode="F" horiz-adv-x="602" 
d="M227 1156q0 -13 -2.5 -54t2.5 -139q-8 -31 9 -172q40 6 154 55t239 80q20 -20 -32 -47t-92 -45.5t-75 -38.5q-53 -21 -107 -51.5t-79 -30.5q0 -34 5 -150.5t12 -302t20 -254.5q-40 -8 -93 -8v123q0 265 -20 563q-27 -10 -40 -15t-22.5 -7.5t-44.5 4.5q4 16 -7 16t-11 12
q10 30 55 43t62 31q-2 78 -4 133t-3 99t-4.5 86t-5.5 92q-45 -18 -61 2t-16 40.5t2 26.5q-2 2 19 14.5t48 22.5q-4 48 9.5 74t31.5 26q13 9 23 -19t16 -62q129 25 230.5 50t160.5 38q70 8 90.5 16t26.5 6q4 -18 6.5 -28.5t-12.5 -30.5q-84 -31 -225.5 -72t-171.5 -47
t-54 -15t-41 -14q2 -37 2 -50z" />
    <glyph glyph-name="G" unicode="G" horiz-adv-x="980" 
d="M866 519q0 -225 72 -267q-21 -71 -70 -27q-49 43 -55 105q-49 -61 -98 -126t-113 -138q-100 -88 -151 -112q-198 -95 -283 -30q-27 20 -53 62q-47 102 -48 211q-2 215 71 473t186 413q59 82 137 158q8 2 24 14q83 62 133 58q12 -23 9 -30t-9 -15t-18 -25q-6 -2 -60 -48
t-124 -142q-185 -253 -240 -590q0 -8 -5 -46q-27 -207 -11 -325q14 -37 31 -57t65 -49q104 -19 224 74t208 232t90 236q-29 0 -140 -54q-112 -54 -142 -64q-27 12 -46 30t-16 60q62 0 380 154q108 53 175 98q19 0 39 13t39 13q-10 -56 -151 -171q-32 -26 -50 -36v-52z" />
    <glyph glyph-name="H" unicode="H" horiz-adv-x="835" 
d="M852 868q45 0 55.5 -6t10.5 -33q-63 -12 -171 -45.5t-145 -42.5q2 -16 6 -69.5t10.5 -125t13.5 -153.5t20.5 -210t24.5 -167t12 -57t11 -57q-60 -24 -90 -11q-21 52 -28 114.5t-11 97.5t-7 82.5t-8 109t-10 129.5t-11.5 154.5t-6.5 144.5q-191 -41 -278 -61q0 -64 5 -164
t6 -126l9 -315q-56 -28 -86 -28q-2 12 -2 29v242q0 225 -6 345q-192 -62 -213 -37q-4 0 2 19.5t17 36.5q96 17 126.5 29t59.5 24q-19 336 -35 445.5t-33 189.5q10 16 42 33.5t71 3.5q-3 -128 7.5 -260t17 -213.5t8.5 -182.5q47 6 112.5 26.5t155.5 39.5q0 234 -15.5 397.5
t-20.5 189.5t-7 31.5t-3 7.5t-1 6.5t2 14.5q10 4 40 7t52 -7q2 -8 4 -50t5 -103.5t6.5 -133.5t7.5 -138.5t7 -118.5t7 -75q209 41 254 41z" />
    <glyph glyph-name="I" unicode="I" horiz-adv-x="342" 
d="M84 1450q-19 -878 63 -1450q-23 -23 -39 -15.5t-27 16.5t-24 15q-11 160 -18.5 331t-25.5 548t-13 518q38 26 84 37z" />
    <glyph glyph-name="J" unicode="J" 
d="M106 -264q35 -107 105 -130l40 -14t48 1q28 7 54 38q27 32 29 119t-26 253q-28 167 -43 278q-108 -138 -145 -221q-73 -163 -62 -324zM360 449q6 -26 13 -33q16 3 92 57q77 54 119 74q16 -4 17 -6t-3 -6q-115 -90 -213 -205q18 -168 37 -326q26 -211 17 -312t-78 -142
q-19 -11 -37 -19q-119 -33 -190 28q-116 89 -97 285q14 151 125 334q43 69 135 174q0 84 -71 510t-93 512q6 2 13 10l21 24t28 13q6 11 17 -29q36 -130 85 -487q49 -356 63 -456z" />
    <glyph glyph-name="K" unicode="K" horiz-adv-x="681" 
d="M184 0q0 -10 -2 -23l-61 21q-2 23 -2 36v258q0 245 -8 337q-6 6 -41.5 19t-40.5 52q8 16 34.5 30.5t47.5 33.5q-3 13 -8 109t-12 212.5t-7 239.5q0 6 40 18.5t40 -0.5q4 -147 12 -271t10 -247q49 49 156 204t126 186.5t24 39.5q20 6 24 7l28 10q25 8 52 14
q-16 -41 -69.5 -123t-63.5 -96t-39 -58t-107.5 -152t-117.5 -142q20 -30 230.5 -141.5t315.5 -127.5q6 -20 9.5 -29t4.5 -14.5t2 -10.5t1 -17q-98 7 -289.5 92.5t-284.5 132.5l-6 -379v-29z" />
    <glyph glyph-name="L" unicode="L" horiz-adv-x="677" 
d="M111 1425q6 -23 19 -160q14 -137 24 -240t35 -354t52 -373t42 -151q55 -51 149 18q63 46 125 128t86 120q25 38 35 52q29 -44 18 -55q-79 -162 -194 -290q-35 -38 -62 -61q-63 -41 -107 -55t-100 27q-35 50 -50 135q-19 105 -49 387q-65 597 -128 825q12 8 22 18
q34 34 83 29z" />
    <glyph glyph-name="M" unicode="M" horiz-adv-x="1275" 
d="M360 1352q-2 0 -30 -10t-73.5 -66.5t-108 -171.5t-121 -282.5t-47.5 -188.5q-23 -10 -44.5 -11t-25.5 33q27 147 138 384.5t172 305.5t59 68q66 41 116 21q31 -10 46.5 -91.5t15.5 -148.5t-3 -117.5t-6.5 -106t-7.5 -117.5t-6 -144q18 98 63.5 191t82 142.5t79.5 67.5
q49 4 63.5 -48t17.5 -96t5.5 -76t5.5 -74t6 -88t7 -82t8 -57.5t8 -15.5q25 41 93.5 160t144.5 139q35 8 56.5 -33.5t33.5 -113.5t19.5 -162t21.5 -238t45 -206q-29 -12 -49.5 6t-44.5 33q-8 27 -18.5 206t-22 273.5t-37.5 101.5q-10 0 -14 5.5t-39 -33.5t-71 -96.5
t-57.5 -103.5t-30.5 -77.5t-18 -57.5t-23.5 -104.5t-18.5 -165.5q-20 -6 -25.5 7.5t-24.5 31.5q17 87 -1.5 419.5t-39.5 402.5q-33 5 -89 -102t-90 -224t-43 -169t-11 -89t-10 -111t-8 -141.5t8 -193.5q-31 -2 -47.5 11t-51.5 46q25 250 25 301q16 203 16 391q4 94 4 164
l1 203q1 203 -5 246q-6 42 -3 45.5t5 5.5t0 2z" />
    <glyph glyph-name="N" unicode="N" horiz-adv-x="1138" 
d="M453 1096v-53l-1 -197l-3 -369q4 4 13 44t34 144.5t41 149.5t27 88t50.5 127t116.5 68q37 8 64.5 -53.5t50 -176.5t51.5 -411.5t43 -327.5q33 -43 86 -6t121 121q13 -20 -5.5 -73.5t-105.5 -125.5q-74 -37 -120 -9.5t-62 89.5q-4 22 -30.5 269.5t-52.5 427t-54 171.5
q-12 8 -26.5 -11t-30 -56t-31 -86t-30.5 -98.5t-26.5 -91.5t-25.5 -89q-73 -246 -96 -575q-41 -4 -53.5 10t-35.5 27l1 79l4 684q0 4 3 43t7 156.5t-1 224.5t-32 142q-43 24 -145 -133.5t-158.5 -326.5t-65.5 -210q-12 -33 -47 -47.5t-47 6.5q56 232 174.5 458t187 285.5
t112.5 61.5t64.5 -38t29 -97.5t6.5 -119t-2 -95.5z" />
    <glyph glyph-name="O" unicode="O" horiz-adv-x="706" 
d="M101 514q23 -419 184 -414q64 -7 135.5 81t125 214t68.5 192q31 129 16.5 251t-51.5 194q-36 72 -144.5 135.5t-258.5 73.5q-23 -90 -40 -248.5t-28.5 -270t-6.5 -208.5zM10 627q0 255 90 637q-53 4 -109.5 35t-56.5 57q602 -26 681.5 -178.5t93.5 -251.5t1.5 -210.5
t-57 -259t-152 -289.5t-186.5 -159q-80 -12 -122.5 0t-81.5 62t-70 176t-31 381z" />
    <glyph glyph-name="P" unicode="P" horiz-adv-x="706" 
d="M399 668q188 0 297 77t90 189q-9 93 -211 186.5t-266 128.5q10 -108 40 -282t50 -299zM395 49q0 236 -47 520q-78 0 -144.5 35t-88 56.5t-21.5 35.5q112 -32 232 -32q-17 130 -46.5 307t-43.5 307q-63 27 -128 49.5t-124 50.5q-4 12 -6.5 17.5t-1.5 9.5t6.5 9t17.5 16
q34 9 209.5 -58.5t375 -171t261.5 -176.5q59 -48 48.5 -120.5t-77.5 -139.5q-191 -178 -391 -191q10 -76 21.5 -159.5t24.5 -209t0.5 -195t-77.5 39.5z" />
    <glyph glyph-name="Q" unicode="Q" horiz-adv-x="786" 
d="M147 694q0 -6 1.5 -59t3 -165t13.5 -171q11 -59 26.5 -105t51.5 -72q58 -41 117 -12t86 72q-19 83 -26.5 158t-16.5 154q20 0 43 -13.5t50 -23.5q4 -33 8.5 -77.5t19.5 -109.5q192 215 205.5 393.5t-37.5 285.5t-219.5 210t-228.5 130.5t-62 27.5q-35 -394 -35 -623z
M115 1341q-20 10 -39.5 21t-67.5 22v64q12 -4 66.5 -15.5t195 -58.5t320.5 -175t220 -286t-19 -344q-50 -147 -133 -255.5t-115 -143.5q14 -94 65 -168t97 -99q89 -49 192 1q4 -20 -3 -27.5t-9 -11.5q-147 -74 -241.5 4t-164.5 227q-8 -6 -31.5 -28.5t-87.5 -55.5t-151 8
q-198 131 -127 934q2 12 11 155.5t22 231.5z" />
    <glyph glyph-name="R" unicode="R" horiz-adv-x="1132" 
d="M332 791q143 25 284 78q140 53 199 86q59 34 57 63v18q-23 89 -392 178q-99 25 -191 37q9 -91 17 -205t26 -255zM252 782l-55 482q-17 0 -95 3t-174 5q-16 10 -25 17t-5 40q91 10 225 0q135 -10 168 -12q455 -52 612 -178q66 -53 63 -107t-46 -90q-58 -65 -226 -123
q-169 -58 -332 -92q20 -55 50 -86t73 -76q207 -162 277 -204q69 -42 131 -76q179 -72 231 -72q10 0 23 -6q8 -23 -71 -23q-78 0 -109 10q-96 30 -197 77q-101 48 -248 161q-36 27 -64 46q-28 18 -50 34t-41 29q13 -80 23 -156q10 -75 20 -137t23 -151q13 -90 26 -126
q-31 -12 -60 -4t-43 6q-8 135 -27 285t-26 242t-10 102q-34 46 -64 76t-65 74q6 8 32 14t56 16z" />
    <glyph glyph-name="S" unicode="S" horiz-adv-x="940" 
d="M379 -45q-4 -13 10 -23q33 -22 107 3q73 26 143 67q101 69 112 156t-75 129q-60 -30 -138 -107q-155 -152 -159 -225zM692 383q90 47 234 100h12q8 -2 2 -12q-18 -16 -57 -44l-78 -56q-39 -29 -60 -43q111 -111 82 -197q-30 -86 -202 -203q-122 -85 -229 -95
q-52 -5 -84 20t-21 92q33 111 121 205t202 190q0 6 -40 35q-162 118 -239 178q-399 314 -348 557q24 120 108 178q49 34 125 51q77 17 126 13q105 -9 201 -101q28 -63 33 -94q-25 21 -43 35t-45 31t-86 28q-169 21 -279 -58t-71 -197t178 -257q60 -59 130 -111t131 -98
q62 -46 115 -84q53 -37 82 -63z" />
    <glyph glyph-name="T" unicode="T" horiz-adv-x="522" 
d="M280.5 0q-30.5 0 -36.5 27q-11 140 -34.5 641t-57.5 612q-153 0 -339 -24q-187 -24 -201.5 -17.5t-20 23.5t58.5 41q221 41 454.5 64.5t368.5 36.5t279 34q22 0 46 -39.5t9 -50.5q-188 5 -551 -54q23 -606 43 -852.5t41 -421.5q0 -8 -14.5 -14t-45 -6z" />
    <glyph glyph-name="U" unicode="U" horiz-adv-x="997" 
d="M620.5 1116q30.5 0 38.5 -24q0 -70 -4 -164t-6 -198.5t-2 -344t82 -291.5q94 -27 153.5 29.5t65.5 65.5l49 79q8 16 12.5 2t-5.5 -45q-119 -206 -203 -218.5t-133 28.5q-44 27 -72 175.5t-18 258.5q-105 -304 -161.5 -367t-78.5 -65t-40 -3t-57 -1t-69 112
q-35 287 -62.5 586t-68.5 596q0 10 6 20.5t45 10.5q23 -4 28 -46t7 -71t5 -59t11.5 -121.5t25.5 -275.5t49 -424.5t54 -225.5q43 -14 84 34t94 175t92 372t23 374q-2 14 11.5 20t44 6z" />
    <glyph glyph-name="V" unicode="V" horiz-adv-x="571" 
d="M563 1466q0 19 38 19t38 -19q-69 -516 -138 -881q-69 -367 -97 -471t-46 -124q-33 -10 -41 -8t-22 30q-103 276 -238 631q-134 355 -172 467q0 20 43 17t43 -17q161 -483 228 -646t133 -310q154 592 215 1180q12 116 16 132z" />
    <glyph glyph-name="W" unicode="W" horiz-adv-x="952" 
d="M893 1220q0 4 -6 19q-6 14 23 36q28 22 48 3q15 -20 2 -142q-12 -122 -14 -190q-64 -477 -91 -609q-26 -132 -46 -212q-11 -28 -38 -34t-46 34q-86 156 -124 262q-38 107 -107 354q-31 -92 -65 -194q-131 -392 -214 -518q-55 -75 -83 -33q-7 12 -11 22q-18 178 -32 342
q-45 571 -77 611q-4 37 26 55t58 8q16 -4 27 -165q12 -162 19 -277q6 -115 14 -212t13 -162t11 -64q12 -29 71 107q82 190 171 490q27 87 47 156q10 23 18 31t35 2q26 -11 33 -70q15 -137 28 -185q66 -240 97 -320t55 -113q35 -30 100 383q65 412 48 526q0 31 5 43t5 16z
" />
    <glyph glyph-name="X" unicode="X" horiz-adv-x="649" 
d="M471 1221q-69 -342 -143 -652q118 -170 303 -395q20 -56 9 -74t-28 -16q-31 33 -59 67q-29 34 -78 90t-168 210q-15 -84 -72 -301t-90 -312q-23 -16 -39 -18t-16 10q63 260 85 375q21 117 35 177q32 144 26 157q-54 89 -100 163q-158 254 -204 394q-8 28 14 21
q32 -11 122 -160t206 -302q105 390 129 529q7 35 39 46q29 7 29 -9z" />
    <glyph glyph-name="Y" unicode="Y" horiz-adv-x="419" 
d="M-66 1290q28 0 44 -3q17 -3 30 -5q33 -338 178 -522q63 -80 138 -113q39 241 30 594q-2 76 -4 92q14 21 32 21t52 -15q10 -272 -36 -685q-15 -159 -77 -421q-63 -262 -90 -352t-47 -117q-24 -4 -52 2t-15 29q76 167 140 455q34 147 56 344q-82 0 -174 100q-25 27 -63 74
t-96 209t-74 295q0 18 28 18z" />
    <glyph glyph-name="Z" unicode="Z" horiz-adv-x="808" 
d="M610 1335q13 -32 -31 -256t-143 -553t-106 -389q118 82 249 176t281 199q29 16 32 13t-13 -33q-123 -92 -277 -224q-153 -132 -305 -256q-47 -24 -69 -20t-11 74q35 145 80 282q45 136 88 276q108 352 135 593q0 37 -171 -122q-169 -160 -306 -329q-41 -11 -59 19
q-17 30 0 44q31 25 92 89q291 302 438 401q54 40 73 34q19 -7 23 -18z" />
    <glyph glyph-name="bracketleft" unicode="[" horiz-adv-x="473" 
d="M286 -133q-46 0 -68 2t-36 3t-20 5q2 14 2 90v192q0 417 -8 877t-17 467q27 12 49 2l150 4q18 -51 19 -64t-17 -7t-123 -2l2 -386l2 -628q0 -156 1 -284t1 -197q58 8 150 8l-15 -72q-26 -10 -72 -10z" />
    <glyph glyph-name="backslash" unicode="\" horiz-adv-x="704" 
d="M604 -96q-17 -24 -69 -8q-27 38 -95 328q-188 802 -215 909q-27 108 -44 177t-25 83q0 25 30 50t60 21q67 -441 332 -1456z" />
    <glyph glyph-name="bracketright" unicode="]" horiz-adv-x="507" 
d="M216 1489q46 0 68 -2t36 -3t20 -5q-2 -14 -2 -89l-2 -444q0 -1053 16 -1069q-27 -12 -49 -2l-149 -4q-8 23 -18 49t7 25q29 -7 131 0v136l2 546l3 592v196q-58 -8 -150 -8l14 72q27 10 73 10z" />
    <glyph glyph-name="asciicircum" unicode="^" horiz-adv-x="1312" 
d="M380 799q-24 0 -49.5 -22.5t-29.5 -45.5q-20 -49 -2 -113.5t70 -111.5q48 -48 119 -100q183 -135 233 -267q172 282 253.5 505.5t24.5 270.5q-44 33 -71 33q-59 0 -116.5 -77.5t-104.5 -225.5l-39 -104l-33 98q-2 2 -13.5 23.5t-56.5 68.5t-153 62q-8 6 -32 6zM662 -59
q44 130 -26 242t-172 180t-193 186t-25 237q39 74 101.5 82.5t125 -18.5t115.5 -75t74 -87q72 220 185.5 298.5t204.5 8.5q92 -70 -20 -354.5t-210.5 -449t-100.5 -166.5z" />
    <glyph glyph-name="underscore" unicode="_" horiz-adv-x="815" 
d="M615 -188q-13 0 -82.5 -2.5t-257.5 -7.5t-205 -9q-10 29 4 45.5t47 14.5l600 6q12 0 8 -19.5t-8 -27.5h-106z" />
    <glyph glyph-name="grave" unicode="`" horiz-adv-x="1705" 
 />
    <glyph glyph-name="a" unicode="a" horiz-adv-x="595" 
d="M329 530q-15 0 -36 -12q-141 -92 -219 -253q-31 -65 -37 -116t14 -67q20 -4 66 31q106 83 183 242q40 83 52 175h-23zM436 602q-2 -12 -9 -51q-73 -409 -7 -440q47 -23 96 15t115 116q15 0 -6 -36t-32 -55q-43 -75 -104 -101q-61 -27 -93 -25t-52 36q-26 65 0 246
q-97 -180 -213 -269t-162 13q-29 111 50 251q134 236 295 291q59 19 122 9z" />
    <glyph glyph-name="b" unicode="b" 
d="M309 543q-61 -34 -121.5 -161.5t-68.5 -262.5q78 -19 158 65.5t119.5 197.5t2.5 165q-14 27 -43 19.5t-47 -23.5zM-37 1261.5q-4 55.5 2 54.5t15.5 4t26.5 1.5t23 -64.5q5 -61 9 -134.5t9 -158.5t11.5 -177.5t12.5 -179.5t11 -161.5t9 -128.5q15 62 76 164t139 144
q102 41 148 -35q50 -118 -2 -243.5t-107 -189t-116 -87.5q-61 -23 -109 -23q6 -48 -4 -53q-16 -16 -64 -6q-12 160 -19 266t-12.5 174t-14 175t-10.5 180q-3 73 -10 167t-13.5 175t-10.5 136.5z" />
    <glyph glyph-name="c" unicode="c" horiz-adv-x="489" 
d="M342 600q2 -12 -76.5 -58t-131.5 -154q-40 -83 -54 -134t6 -121q15 -36 51 -39q82 14 133 49t131 101q78 74 110 111.5t45 48t28 6.5q-8 -18 -46 -78t-146.5 -179.5t-264.5 -144.5q-37 2 -61 8.5t-46 53.5t-16 119.5t30.5 144.5t61.5 133t72 90q85 60 174 43z" />
    <glyph glyph-name="d" unicode="d" horiz-adv-x="638" 
d="M33 126q0 -61 45 -52q37 15 53 29q15 14 29 24t35 27q29 32 71 70q172 160 88 257q-63 0 -198 -141q-79 -82 -123 -195v-19zM453 530q49 55 96 153q80 169 99 363t-42 201q-50 7 -98 -85q-66 -126 -71 -299q-3 -96 -11 -181q0 -96 20 -146q5 -12 7 -6zM723 1186v-109
q-16 -96 -28 -144q-13 -48 -19 -75q-34 -154 -152 -359q-35 -60 -71 -104q1 -69 27 -287q26 -219 28 -264q-10 -10 -19 4q-8 14 -24 50q-20 87 -36 208t-32 195q-123 -154 -193 -212q-71 -57 -127 -77t-97 17q-80 106 126 342q50 56 111 108q83 51 107 57q24 5 49 3
q-13 148 -5 286q7 139 12 177q12 93 63 191t111 125q78 34 138 -40q32 -40 31 -92z" />
    <glyph glyph-name="e" unicode="e" horiz-adv-x="512" 
d="M94 217q122 63 165.5 139t45.5 121q6 31 0 40t-10 9q-66 30 -133.5 -86t-67.5 -223zM106 129q36 -95 128.5 -55t177.5 119q75 65 123 124q6 4 7 -1.5t-7 -43.5q-16 -38 -47 -69t-58 -62q-31 -29 -59.5 -56.5t-77.5 -59.5t-139 -17q-115 39 -131 121q-29 118 32 291
q57 119 129 160q62 21 82 14q59 2 91 -31t5 -127q-39 -104 -103 -173.5t-153 -133.5z" />
    <glyph glyph-name="f" unicode="f" horiz-adv-x="448" 
d="M39.5 500q-35.5 0 -57.5 -1t-22.5 6t4.5 18.5t12.5 21.5t9.5 14q12 4 71.5 10t130.5 15q-18 348 34.5 516t125.5 198q74 31 130.5 5.5t93 -68.5t52 -87t3.5 -52h-23q-24 0 -24 3t-2 7q-4 0 -27.5 61.5t-81.5 61.5q-102 25 -156.5 -106t-54.5 -308.5t-2 -220.5
q156 8 193 8q19 -4 38 -35.5t9 -31.5q-51 -8 -238 -19q2 -107 18.5 -330t18.5 -313q-4 -16 -21.5 -15t-29.5 2t-14.5 3t-3.5 18.5t-4.5 148.5t-28.5 480q-118 -10 -153.5 -10z" />
    <glyph glyph-name="g" unicode="g" horiz-adv-x="653" 
d="M387 -131q9 68 -12 61q-91 -74 -163 -141q-150 -139 -185 -268q-23 -66 -26 -116t26 -97q51 -39 111.5 -15.5t111.5 72.5q130 149 137 504zM540 589q1 0 3 -1q-42 -115 -61 -289t-25 -211q33 33 188 135q10 -10 -16.5 -40.5t-52.5 -60.5t-65.5 -70t-64.5 -68l-2 -47
q-4 -70 -3 -140.5t-10 -147.5t-24.5 -127t-27.5 -82t-29.5 -53.5t-36.5 -52.5t-79 -66q-119 -74 -211 -53.5t-99 158.5q-11 211 254 475q53 56 96.5 90t104.5 85q14 88 10 215q-84 -173 -227 -215q-70 -11 -95 6t-36 49q-25 134 77.5 300.5t258.5 225.5q120 26 176 -14
q-1 -1 -3 -1zM86 186q0 -57 2 -67t14 -16.5t48 1.5t82.5 50.5t98.5 116.5t84 151q31 77 26 130q-35 1 -103 -33t-154 -138q-98 -138 -98 -195zM451 551h2h-2z" />
    <glyph glyph-name="h" unicode="h" horiz-adv-x="544" 
d="M27 888q0 175 -25 566q0 4 24.5 15.5t53.5 5.5q8 -24 8 -101v-250l2 -739q23 100 64.5 165.5t79.5 71.5t59.5 -19t35 -69.5t47.5 -180.5t183 -154q-181 -154 -243 74.5t-70 239.5t-40 -20t-81 -235l-6 -22q-20 -91 -17.5 -178t7.5 -95l-82 19v906z" />
    <glyph glyph-name="i" unicode="i" horiz-adv-x="256" 
d="M178 0q-42 -8 -86 18q-7 55 -18 263q-12 207 -21 317q8 4 14 12q21 33 54 25q10 -98 14 -216q3 -117 13 -215t18 -134t12 -70zM37 819q21 59 78 82q20 3 24 -25t-8 -42q-23 -18 -29 -32t-28 -18q-12 2 -22 1t-15 34z" />
    <glyph glyph-name="j" unicode="j" horiz-adv-x="319" 
d="M8 817q18 49 64 68q18 2 20 -21.5t-6 -36.5q-18 -16 -23.5 -26t-23.5 -13q-10 2 -18.5 1t-12.5 28zM-115 -352q-26 -198 56 -254q45 -22 88 -8q125 59 117.5 309t-8.5 305t-3.5 54.5t-26.5 -26.5q-66 -69 -135 -183t-88 -197zM-35 -692q-104 0 -143 157q-11 122 12 193.5
t40 108t30 69.5q55 101 114.5 178.5t102.5 130.5q-10 69 -11.5 96t-5.5 52t-20.5 128.5t-34.5 151.5q12 35 32.5 50.5t41.5 27.5q25 -55 37 -176t17 -149t8 -52t8 -53q12 6 63.5 52t130.5 42q2 -2 21 -11.5t-11 -13.5q-54 -8 -128 -84t-74 -116q2 8 5 17t3 -5q-2 -78 3 -166
t-1 -208t-15.5 -179t-22.5 -93t-29.5 -53t-39.5 -46q-49 -49 -133 -49z" />
    <glyph glyph-name="k" unicode="k" horiz-adv-x="520" 
d="M12 1016l1 158q1 157 -9 182q14 16 27.5 20t48.5 6q4 -250 0 -493.5t0 -462.5q62 48 121 113t83.5 92.5t30.5 30.5q19 -16 37 -27t20 -11q-51 -57 -106 -121.5t-127 -101.5q115 -25 355 -47q20 -23 41 -75q-133 24 -260.5 31t-194.5 14q-2 -104 4 -185.5t0 -146.5
q-17 -3 -28 11.5t-18 24t-20 13.5q6 283 -2 520.5t-4 454.5zM373 624z" />
    <glyph glyph-name="l" unicode="l" horiz-adv-x="235" 
d="M88 541q96 282 122 474.5t20.5 263.5t-29.5 73q-39 14 -61.5 -27t-36 -114.5t-17.5 -169t-3 -189.5t3 -178t2 -133zM-37 268q-6 0 -3 14t6.5 32.5t26.5 51.5t38 91q-4 46 -4 53l-2 102v282q0 283 26 404q14 59 44 91t62.5 37.5t64.5 -15.5t49 -67t17.5 -117.5t-25.5 -249
t-159 -553.5q0 -6 6.5 -57.5t14.5 -125t19.5 -158.5t25 -199.5t23.5 -172.5q-28 5 -37.5 14.5t-51.5 67.5q-27 188 -42 328.5t-25 228.5q-62 -82 -74 -82z" />
    <glyph glyph-name="m" unicode="m" horiz-adv-x="772" 
d="M82 309q33 134 99 238t107.5 104t46.5 -54t7 -138.5t8 -173.5q86 214 133 252t82 24q23 -9 30 -82t19 -188.5t125 -100.5q60 0 58 -7t-2 -15q-135 -69 -189 15.5t-65 246.5q-10 71 -83 -58t-112 -257q-10 -18 -32.5 -10.5t-29.5 35.5t-8.5 76t-0.5 97t3.5 95.5t0 79
t-8.5 45t-22 -6.5q-101 -152 -135.5 -315.5t-38.5 -222.5q-35 -8 -49.5 9t-24.5 36q9 63 25 657q0 32 24 23.5t45 -29.5q4 -53 -4 -145.5t-8 -229.5z" />
    <glyph glyph-name="n" unicode="n" horiz-adv-x="540" 
d="M32 657q9 0 31 -16t33 -16q0 -264 -8 -408q4 41 47 142.5t80.5 160.5t79.5 42q41 -17 59.5 -56t26.5 -89t16.5 -111.5t28.5 -111.5t44 -63.5t45.5 -20t34.5 -7.5t9 -7q-91 -70 -137.5 6.5t-72 182.5t-36 144t-22.5 38q-32 -4 -94.5 -139.5t-110.5 -327.5q-31 0 -38 -2
t-23 20q15 277 -2 621q0 18 9 18z" />
    <glyph glyph-name="o" unicode="o" horiz-adv-x="405" 
d="M57.5 239.5q18.5 -98.5 25.5 -109.5q17 -26 47 -36t71 32q80 82 96 190.5t-31 146.5q-49 31 -88 41t-82 22q-57 -188 -38.5 -286.5zM152 2q-36 0 -90.5 38t-65.5 199q-10 160 14 291q-20 33 -39 48q28 14 39 36q137 -7 218 -48.5t106 -65.5t29 -69.5t-6.5 -101
t-32 -113.5t-48 -105.5t-57.5 -78t-67 -30.5z" />
    <glyph glyph-name="p" unicode="p" horiz-adv-x="604" 
d="M473 430q0 47 -18 59q-41 27 -78 6t-63 -43q-54 -46 -129.5 -164t-75.5 -188q28 -35 117 2t143.5 98.5t79 122t24.5 107.5zM45 -632q0 72 -1 136t-4.5 420.5t-31.5 532.5q0 53 -26 170q35 2 47 -7.5t24 -21.5q22 -70 49 -358q18 89 114.5 197.5t159 125t86.5 5.5
q45 -20 64 -43.5t19 -73.5q-4 -106 -53.5 -192.5t-118 -146t-142 -88t-125.5 -20.5q0 -199 3.5 -332t4.5 -218t0 -128t-6.5 -59.5t-18.5 -15.5t-34 6q-4 -6 -6 9q-4 30 -4 102z" />
    <glyph glyph-name="q" unicode="q" horiz-adv-x="622" 
d="M139 121q25 -41 83.5 -24.5t115.5 75.5t99 152.5t36 205.5q-97 7 -183.5 -76t-132 -192.5t-18.5 -140.5zM516 31q0 -49 -2 -119t-3.5 -203t14 -273t65.5 -198q-36 -24 -73.5 -0.5t-37.5 29.5q-25 0 -26.5 204.5t-0.5 371.5t1 350q-167 -190 -259 -176t-124 63
q-29 64 30 205.5t180.5 241t264.5 65.5q-29 -254 -29 -561z" />
    <glyph glyph-name="r" unicode="r" horiz-adv-x="430" 
d="M55 647q-2 18 20 9t44 -19q16 -93 20 -151t8 -105q63 164 214 198q58 13 141 9q0 -16 -12 -28t-61 -19q-167 -27 -253 -271q-8 -68 -9 -115t-2 -83t2 -50q3 -16 -8 -21q-28 -13 -46 -7q-19 6 -19 16q4 212 -12 364t-27 273z" />
    <glyph glyph-name="s" unicode="s" horiz-adv-x="544" 
d="M207 -57q43 -18 100 25q58 43 76 89q11 29 -47 68q-55 -38 -89 -79q-67 -80 -40 -103zM599 324q10 0 -20 -25t-81 -57q-50 -31 -95 -60q44 -40 53 -81q9 -40 -5 -66q-73 -117 -187 -154q-30 -10 -64 -2t-55 33q-53 76 88 192q35 29 62 52q-18 20 -115 74
q-207 116 -219 204t71 157q117 98 278 32q59 -24 84 -68q11 -18 22 -35q-3 -10 -51 21t-111 37q-64 6 -118 -8t-87 -46q-33 -33 -17 -80q36 -101 255 -194q51 -23 84 -45q212 119 228 119z" />
    <glyph glyph-name="t" unicode="t" horiz-adv-x="573" 
d="M330 404q0 -68 5 -174q5 -108 40 -193q50 -60 102 -41q53 19 94 70q14 14 25 -3t-54 -75q-66 -59 -165 -31q-47 11 -70 75t-34 149t-15 177t-10 166q-90 -8 -132 -14t-60 -8t-25 2q-6 4 -23 18q2 10 1 20t0 15q5 30 125 32q58 1 114 9l-12 291q0 18 35 21t43 -17t10 -56
t3 -76t1 -81t-2 -70q76 5 350 29q20 -1 26 -21t-16 -24q-214 -23 -360 -59q4 -63 4 -131z" />
    <glyph glyph-name="u" unicode="u" 
d="M334 549q31 0 49 -6q-4 -45 -22.5 -226t40.5 -219q36 -22 87 23t73.5 64.5t28.5 13.5q-16 -70 -95 -123t-141 -29q-28 5 -35.5 86.5t-11.5 108.5q-114 -235 -151 -248q-37 -14 -59.5 -5t-30.5 25q-29 14 -29 75v271q0 210 -8 328q57 0 73 -20q10 -47 3 -166t-9 -206
q-2 -105 4.5 -150t28.5 -56q14 -10 47 35t87.5 170.5t39.5 234.5q0 19 31 19z" />
    <glyph glyph-name="v" unicode="v" horiz-adv-x="491" 
d="M168 -2q-24 0 -33 22q-15 45 -46 243t-60 302q-10 35 3 42t58 -9q6 0 36 -195t62 -284q6 -4 39 47t71 135q110 244 122 371q-4 10 15 -1q38 -23 38 -34q-45 -311 -254 -612q-27 -27 -51 -27z" />
    <glyph glyph-name="w" unicode="w" horiz-adv-x="671" 
d="M-8 152v499q0 38 34.5 43.5t41.5 5.5q8 2 8 -15t-7 -114t-4 -171q7 -170 12 -247.5t25 -74.5q21 0 62.5 99t99.5 325q8 29 24.5 17.5t24.5 -40.5q6 -10 63 -133t89 -127q53 -11 66.5 162.5t13.5 206.5q21 31 41 44t26 6t-4 -46q0 -185 -59 -358.5t-122 -97t-96.5 149
t-43.5 87.5q-26 -125 -72.5 -231.5t-77.5 -151.5t-57 -41q-88 63 -88 203z" />
    <glyph glyph-name="x" unicode="x" horiz-adv-x="491" 
d="M6 729q91 -117 209 -309q51 130 64 227q4 16 23 8t32 -14q17 -39 -31 -151q-10 -26 -14 -38t-9 -24q-4 -14 -10 -30t-12 -31q47 -115 90 -200t58 -128q0 -14 -24 -5t-42 25q-26 51 -54 99t-59 106q-27 -79 -67 -171q-39 -91 -51 -124q-15 -20 -27 -25t-41 5
q93 226 111 285t32 112q-28 37 -103 164q-75 126 -99 152q-14 20 -10 47q5 26 34 20z" />
    <glyph glyph-name="y" unicode="y" horiz-adv-x="626" 
d="M365 -29q-12 -14 -25.5 -27.5t-33.5 -37.5t-44 -79.5t-52.5 -162.5t-8.5 -216.5t116 -98.5q68 14 61 257.5t-10 295t-3 69.5zM135 -495q0 175 59.5 327t155.5 215q6 111 6 217q-57 -151 -155 -211q-63 -29 -107.5 6t-54.5 113t-16.5 133t-10.5 104.5t-7 102.5t-9 133
q10 6 30.5 3t30.5 -13q8 0 13.5 -131.5t22.5 -236t64 -125.5q46 -22 106.5 71.5t96.5 302.5q0 5 40 -6t40 -21q0 -34 -12 -156.5t-8 -234.5q104 89 237 103q20 -10 21.5 -13.5t-8.5 -11.5q-123 -36 -248 -147l2 -249q2 -250 -10 -354t-59 -133q-46 -29 -133 4t-87 208z" />
    <glyph glyph-name="z" unicode="z" horiz-adv-x="737" 
d="M364.5 595q63.5 26 96.5 27t40 -14.5t-47 -158.5t-135 -291q47 18 159.5 73.5t203.5 85.5q33 0 44 3.5t24 -19.5q-120 -44 -221 -109t-161.5 -105t-125.5 -73q-20 0 -43 19.5t-15 27.5q143 244 180 335t48 149q-10 4 -42 -13.5t-128 -67.5t-151 -64q-67 -16 -75 -10.5
t29 34.5q23 12 76 44t116.5 66.5t127 60.5z" />
    <glyph glyph-name="braceleft" unicode="{" horiz-adv-x="479" 
d="M436 -193l-22 -20q-73 0 -133 53.5t-92 104.5t-33.5 97t5.5 96t28.5 176.5t-152.5 271.5q182 133 143 283.5t-40 203.5t28 111q50 86 149 182q43 39 91 72q93 -14 71 -27q-264 -171 -262 -285t23.5 -206.5t16.5 -169t-112 -164.5q68 -78 87.5 -145.5t16.5 -130
t-17.5 -118t-17.5 -109.5t17.5 -105.5t85.5 -102.5q65 -50 119 -68z" />
    <glyph glyph-name="bar" unicode="|" horiz-adv-x="493" 
d="M272 -408q0 -25 -86 0q2 14 3 92t5 283q4 206 5 715q0 509 -11 518q45 10 72 -4t26 -42t-1 -97l-13 -1346v-119z" />
    <glyph glyph-name="braceright" unicode="}" horiz-adv-x="436" 
d="M162 462.5q0 77.5 104 170.5q-72 74 -94 141.5t-22 129t20 156.5t-13.5 168.5t-103.5 113.5t-112 55l20 20q130 0 238 -155q45 -61 35.5 -147.5t-24 -217t164.5 -260.5q-176 -140 -130 -290t49 -203.5t-22 -110.5q-81 -154 -227 -264q-32 2 -58 9t-16 15
q255 179 248 296.5t-32 206.5t-25 166.5z" />
    <glyph glyph-name="asciitilde" unicode="~" horiz-adv-x="681" 
d="M121 373q30 54 89 64q30 5 73 -17t107 -32q64 -8 111 2q48 10 57 16q10 4 20 5q25 2 19 -12t-66 -45q-61 -31 -106 -29q-44 1 -89 21t-90 33q-45 12 -60 -1q-14 -13 -26 -24z" />
    <glyph glyph-name="cent" unicode="&#xa2;" horiz-adv-x="606" 
d="M291 182q0 -21 -72 0q0 16 1 76t1 128q-24 -7 -49 -11q-31 4 -51 8t-40 43q-36 71 13 217t120 193q-5 164 -13 178q37 10 59 -2t22 -38q-4 -108 2 -108q36 6 70 0q2 -10 -16 -20t-34 -22t-21 -14q0 -22 2 -122t2 -205q20 11 119 88q39 35 78 80t51 52t24 6
q-6 -13 -38 -63q-79 -122 -202 -211q-15 -11 -31 -20q3 -201 3 -233zM220 455q-1 76 -2 153t-2 141q-24 -28 -48 -78t-36 -92q-11 -42 5 -100q14 -28 43 -33q21 4 40 9z" />
    <glyph glyph-name="copyright" unicode="&#xa9;" horiz-adv-x="774" 
d="M492 510l30 -16q-10 -39 -45 -73t-110 -66t-119 36q-24 108 36 165.5t74 70.5q12 2 27.5 7t39.5 3.5t17 -37.5q-72 -14 -101.5 -57t-35.5 -77t-1 -41t28 -19q115 7 160 104zM337 735q-89 0 -159 -94q-35 -53 -35 -126t13 -116q53 -124 192 -147l41 -2q80 0 181.5 80
t23.5 270q-17 39 -92.5 87t-164.5 48zM412 190q-187 0 -297 140q-61 124 -11 256q50 133 172 190q73 25 107 25q35 0 61 -8h7q4 -5 18 -9q57 -18 122.5 -72.5t86.5 -162.5q17 -153 -80 -258q-41 -49 -96.5 -75t-89.5 -26z" />
    <glyph glyph-name="registered" unicode="&#xae;" horiz-adv-x="950" 
d="M395 577.5q0 -14.5 8 -49.5q37 10 76 30t41 30t1 12t-17 12q-35 22 -103 -2h-4q-2 -18 -2 -32.5zM715 481v-10l-82 -20q-97 -33 -147 -33q-51 0 -72 12q2 -18 2 -27.5t-2 -42.5v-36l-17 4q-12 6 -30.5 -2.5t-22.5 -8.5q-20 0 -20 25v8q0 27 2.5 139t-25.5 168l-2 11
l45 28h2q18 4 23.5 -8t5.5 -16v-2q37 18 79 18q121 0 137 -63t-69 -105q-10 -4 -18 -11t-19 -11l52 -13q16 0 38 10.5t76 24.5h6q35 -10 46.5 -16t11.5 -23zM428 238l49 -5q83 0 209.5 87.5t36.5 330.5q-21 47 -112.5 104.5t-182.5 57.5q-123 0 -201 -113q-19 -19 -39 -109
t9 -179q74 -152 231 -174zM498 162q-218 0 -346 168q-72 149 -13 319q66 176 180.5 210t147.5 34t78 -10h4q5 -5 23 -11q76 -24 151 -90t98 -190q12 -88 -13.5 -169t-82.5 -140q-49 -59 -114 -90t-113 -31z" />
    <glyph glyph-name="degree" unicode="&#xb0;" horiz-adv-x="260" 
d="M92.5 1150q4.5 -24 23.5 -34t33.5 8.5t25.5 67.5t-23 53q-20 4 -36 -11t-22 -37.5t-1.5 -46.5zM103 1259q27 19 53 17q56 -4 57 -62q-6 -67 -20 -99.5t-70 -35.5q-18 0 -33 6q-38 21 -32 70t12 67t33 37z" />
    <glyph glyph-name="multiply" unicode="&#xd7;" horiz-adv-x="739" 
d="M401 449q-10 -13 -125 -166q-35 10 -39 37.5t25 56.5q44 54 95 113q-74 69 -164 147q-8 8 14.5 30t38.5 27q16 -20 63 -59t69 -57t30 -26q63 75 137 165q18 18 45 -37q-48 -53 -136 -164q9 -9 183 -145q-49 -93 -129 -20q-44 40 -107 98z" />
    <glyph glyph-name="divide" unicode="&#xf7;" horiz-adv-x="579" 
d="M332 301q0 -51 -45 -51q-9 0 -30 10t-13 33q18 50 53 43q8 0 21.5 -10.5t13.5 -24.5zM332 572q0 -50 -45 -50q-4 2 -8.5 1t-12.5 3q-30 18 -22 40q17 48 53 44q8 -4 21.5 -12t13.5 -26zM130 453h128q127 0 244 4q24 0 13 -24.5t-13 -29.5q-68 5 -254.5 -6.5t-198.5 -13.5
q-10 33 5.5 51.5t75.5 18.5z" />
    <glyph glyph-name="tilde" unicode="&#x2dc;" horiz-adv-x="935" 
d="M113 1186q39 69 112 82q39 6 111 -32t179 -33q106 4 141 21q35 16 48 10q13 -7 10 -15q-7 -18 -80 -56q-73 -37 -132 -37q-60 0 -118 26t-98 38t-63 10t-35 -13t-26 -24z" />
    <glyph glyph-name="endash" unicode="&#x2013;" horiz-adv-x="862" 
d="M121 422l267 1q266 1 372 5q20 0 11 -29.5t-11 -33.5q-14 0 -69.5 1t-130.5 -1.5t-159 -4.5t-199 -5t-132 -15q-10 39 4 61.5t47 20.5z" />
    <glyph glyph-name="emdash" unicode="&#x2014;" horiz-adv-x="1335" 
d="M1243 384q0 -24 -8 -40q-1125 0 -1145 -25q-10 39 4.5 61.5t46.5 20.5l75 1h206l454 2q322 2 357 4q10 0 10 -24z" />
    <glyph glyph-name="quoteleft" unicode="&#x2018;" horiz-adv-x="274" 
d="M170 1372q-5 0 -7.5 -131t-12.5 -180q-12 -8 -40 -14.5t-38 4.5q31 184 28.5 244.5t-10.5 115.5q16 14 23 16.5t30 2.5q27 -6 27 -58z" />
    <glyph glyph-name="quoteright" unicode="&#x2019;" horiz-adv-x="307" 
d="M201 1368q-5 0 -7.5 -128.5t-13.5 -182.5q-12 -8 -39.5 -14.5t-38.5 4.5q8 47 15.5 89t13.5 103t-10 168q16 14 23 16t30 2q27 -6 27 -57z" />
    <glyph glyph-name="quotedblleft" unicode="&#x201c;" horiz-adv-x="413" 
d="M66 1425q20 4 26 3t27 -11q16 -148 76 -278q18 -41 38 -88q-7 -13 -33 -11t-38 9q-29 68 -65 192q-35 123 -40 123q-6 23 -7 39q0 16 16 22zM281 1346q8 -37 25 -76q65 -150 48 -160q-20 -6 -41 20q-51 69 -98 230q23 29 66 -14z" />
    <glyph glyph-name="quotedblright" unicode="&#x201d;" horiz-adv-x="378" 
d="M231 1049q-22 -50 -43 -41q-22 10 -26 15t-10 28q85 121 113 210t44 138q19 6 36 -16.5t20 -28.5q-16 -56 -77 -179.5t-57 -125.5zM78 1212q19 34 44 107.5t36.5 96t23.5 22.5q46 -21 -1.5 -136.5t-61.5 -144.5q-23 -4 -31 14t-10 41z" />
    <glyph glyph-name="bullet" unicode="&#x2022;" horiz-adv-x="618" 
d="M305 469q0 -33 -18.5 -63.5t-71.5 -30.5q-4 2 -14.5 2t-32.5 11t-30.5 36.5t0.5 51.5t32.5 48.5t53.5 19.5t55.5 -22.5t25.5 -52.5z" />
    <glyph glyph-name="fraction" unicode="&#x2044;" horiz-adv-x="274" 
d="M-225 352q-28 -7 -58 41q16 72 467 877q252 450 258 487q29 36 92 8q15 -6 23 -16q-161 -244 -478 -827q-81 -150 -147 -272t-108 -203t-49 -95z" />
    <glyph glyph-name="trademark" unicode="&#x2122;" horiz-adv-x="454" 
d="M47 999q-21 140 -43 201q-29 -2 -50.5 -12t-57.5 -6q-8 20 0 41q37 0 105.5 25t100.5 30q6 -12 12.5 -15t13.5 -13.5t17 -80.5q20 35 27.5 51.5t20.5 39.5q8 10 30 0q15 -62 47 -109q34 4 44.5 50.5t19 50t24.5 -10.5q18 -104 66 -121q4 -18 1 -23t-13 -14
q-38 -7 -54 26.5t-26 41.5q-65 -123 -121 25q-8 14 -20.5 -6t-22.5 -113q-16 -8 -18.5 -7t-22.5 -1q-6 23 -7 58.5t-8 87.5t-67 19q8 -31 10 -59.5t10 -68.5q18 -88 -18 -87z" />
    <glyph glyph-name="minus" unicode="&#x2212;" horiz-adv-x="612" 
d="M374 526q22 0 128 2q12 0 8 -19.5t-8 -27.5q-50 4 -223 -5t-185 -11q-10 29 4.5 45t68.5 16h207z" />
    <glyph glyph-name="glyph111" horiz-adv-x="0" 
 />
    </font>
</defs>
</svg>
